PathFileType	4	(X/Y/Z)	OpenSim_Sub07_CSStiffKnee_Gyro.trc
DataRate	CameraRate	NumFrames	NumMarkers	Units	OrigDataRate	OrigDataStartFrame	OrigNumFrames
100	100	27	8	m	100	842	6734
Frame#	Time	torso_imu_offset_imu	pelvis_imu_offset_imu	tibia_r_imu_offset_imu	femur_r_imu_offset_imu	tibia_l_imu_offset_imu	femur_l_imu_offset_imu	toes_r_imu_offset_imu	toes_l_imu_offset_imu
				X1	Y1	Z1	X2	Y2	Z2	X3	Y3	Z3	X4	Y4	Z4	X5	Y5	Z5	X6	Y6	Z6	X7	Y7	Z7	X8		Y8	Z8	

842	8.41000000	-0.12506578	-0.04788387	-0.02490428	-0.15815848	-0.20596086	-0.06625649	0.03859635	-0.33539696	-1.07720521	-0.17411790	0.37814884	-0.25423254	-1.02470973	-0.56398486	-2.15562079	-0.09577128	-0.26426178	-0.22501903	-0.01399411	-0.09963986	-0.08126016	-0.10512838	0.50506391	-1.21943253
843	8.42000000	-0.06349260	-0.06101500	-0.05084600	-0.16999199	-0.25785513	-0.01760219	0.07560981	-0.33851029	-1.17928755	-0.18602079	0.39714626	-0.19053134	-1.21696287	-0.51444188	-2.03653252	0.06833747	-0.33130083	-0.12851719	-0.01483142	-0.13316838	-0.04618418	-1.91983248	-0.39339821	-0.80220498
844	8.43000000	0.00386193	-0.08031109	-0.06735010	-0.17708860	-0.30151082	-0.01576493	0.15155815	-0.35757399	-1.27146279	-0.16869252	0.42107965	-0.14131519	-1.40274043	-0.40402580	-1.76019292	0.29896057	-0.32664840	-0.05791217	-0.03358093	-0.16758365	0.00055809	-1.37847152	-0.83695796	-0.71099131
845	8.44000000	0.04700290	-0.10668482	-0.07518072	-0.20664425	-0.33696865	0.01594939	0.14199252	-0.39850180	-1.37534884	-0.12846909	0.42351283	-0.11809251	-0.94034313	-0.38661296	-1.32267305	0.51302286	-0.24261745	-0.06233951	-0.09538425	-0.19199433	0.05931511	0.41338572	-0.88750604	-0.69212539
846	8.45000000	0.09552417	-0.13948621	-0.08906954	-0.22328244	-0.36827049	0.03864730	0.09284855	-0.45793603	-1.46287769	-0.09852411	0.40929575	-0.09783015	-0.25145679	-0.34106508	-0.87878449	0.63999296	-0.17712978	-0.12977973	-0.15947409	-0.25302309	0.13183085	-0.52756937	-1.11875103	-0.46863986
847	8.46000000	0.15228200	-0.16277000	-0.09677824	-0.23537038	-0.39894944	0.05992149	0.05212621	-0.51045670	-1.53946883	-0.08999615	0.36800970	-0.04446081	-0.22366900	-0.35654290	-0.38200766	0.61668865	-0.17814609	-0.23430921	-0.19216066	-0.29847413	0.19578011	-1.13126836	-1.33813069	-0.17904104
848	8.47000000	0.22707376	-0.18424077	-0.09845030	-0.26391159	-0.40083419	0.08602204	0.00824418	-0.52885221	-1.70767289	-0.10883597	0.32037193	0.04210606	-0.49034030	-0.40481898	0.19164437	0.49254855	-0.12681300	-0.33555297	-0.26572289	-0.38130973	0.28466715	-1.07174978	-2.15856323	0.01573703
849	8.48000000	0.30783425	-0.20668559	-0.09395516	-0.32425270	-0.38851054	0.11448927	-0.03644000	-0.59292926	-1.85426289	-0.16422880	0.26966687	0.14661320	-0.42015973	-0.29500020	0.77473008	0.34491831	-0.09970151	-0.47373254	-0.37578253	-0.50907975	0.37757096	-1.40943190	-3.12759782	0.18730367
850	8.49000000	0.38646860	-0.23194977	-0.08369191	-0.41210739	-0.37575944	0.12026017	-0.14719524	-0.69064622	-2.01138368	-0.21422292	0.19879992	0.25576504	-0.08792635	-0.07259384	1.40330704	0.09764855	-0.20497192	-0.59569544	-0.36356562	-0.67027842	0.40292372	-0.46744370	-3.18204620	0.33126528
851	8.50000000	0.47287495	-0.23864809	-0.08514126	-0.49924260	-0.36163183	0.09043974	-0.34664309	-0.82909216	-2.15311404	-0.20896150	0.09296550	0.39118929	-0.22759441	0.04683621	2.02575620	-0.36492528	-0.36664019	-0.62268362	-0.31134795	-0.88175161	0.41422027	-1.24295137	0.19366098	0.74011978
852	8.51000000	0.56340987	-0.21226728	-0.09830367	-0.56527846	-0.36002945	-0.01313542	-0.62954028	-0.94188779	-2.39182317	-0.14636402	-0.04707018	0.58119289	-0.97073537	-0.21739353	2.28035710	-0.89383618	-0.48135089	-0.39491378	-0.48921994	-1.16367648	0.49345263	-2.95856731	2.60235430	1.12996523
853	8.52000000	0.64014012	-0.16970378	-0.09855857	-0.61619932	-0.38217788	-0.14236079	-0.91454495	-1.06204967	-2.53995101	-0.07240581	-0.22205678	0.85161284	-1.06538901	-0.58404655	2.19960799	-1.27665572	-0.39192422	0.07065561	-0.58959922	-1.58892550	0.53495093	4.54609637	-1.44367815	0.08841598
854	8.53000000	0.69395251	-0.14127333	-0.09904795	-0.68742770	-0.43313588	-0.26725337	-1.00561241	-1.26468886	-2.52789196	0.00174948	-0.40714917	1.15899363	-0.08160239	-0.23434634	1.85270492	-1.46522426	-0.29383048	0.34719524	-0.90598877	-2.23169210	0.56082406	-3.34005285	-0.55857336	0.13515317
855	8.54000000	0.71697778	-0.15030176	-0.11122949	-0.74058406	-0.44110856	-0.37258065	-0.83136029	-1.34814694	-2.63600417	0.02920304	-0.59950031	1.48505066	0.12856828	0.21491669	1.19857298	-1.28854166	-0.36956574	0.31074914	-1.16458982	-3.08617786	0.57088714	-1.73781311	0.12795281	0.18532025
856	8.55000000	0.70792801	-0.16964267	-0.15028893	-0.80470247	-0.44728690	-0.39383811	-0.56132535	-1.33181371	-2.66919892	-0.11834942	-0.73034266	1.84127729	-0.64780597	-0.10670746	1.01034432	-0.73140473	-0.40970381	0.27701810	-1.37168062	-3.98800676	0.71190609	2.92680400	0.00719760	0.00846416
857	8.56000000	0.67143032	-0.17530782	-0.20571945	-0.86537027	-0.47572867	-0.35311988	-0.31500761	-1.26405011	-2.84947650	-0.30050828	-0.68112781	2.20717790	-1.46438351	-0.52236050	1.23846318	-0.13718337	-0.41233679	0.32681762	-1.63648860	-4.69101991	0.78656798	-1.13673977	-0.20195177	0.07447844
858	8.57000000	0.63364982	-0.14439977	-0.25997655	-0.86767047	-0.49647270	-0.29850681	-0.21488247	-1.19661031	-3.12853602	-0.33530012	-0.40621920	2.44879448	-1.32016313	-0.39302915	1.31025601	0.26860259	-0.34575794	0.44134874	-0.99118929	-5.05798869	0.59896373	0.07206526	0.10116959	0.04544944
859	8.58000000	0.62986240	-0.09173310	-0.30049021	-0.83941680	-0.45396361	-0.24080246	-0.58467037	-1.11922445	-3.32863271	-0.13019610	-0.11500478	2.53543763	-0.40486016	-0.22600385	1.07466219	0.43494972	-0.34231905	0.58840609	-1.39395483	-5.58326760	0.68849745	0.10849694	0.01296459	0.08433033
860	8.59000000	0.62698209	-0.04243692	-0.32550266	-0.78287750	-0.32146859	-0.21558519	-0.81723573	-0.99875853	-3.43105424	0.27590200	-0.08267568	2.57782783	0.05444547	-0.19552876	0.86484130	0.26055190	-0.39097022	0.74121421	-0.96849581	-5.56119076	0.16163530	-0.17388237	-0.00311085	0.09480335
861	8.60000000	0.61883632	0.00432800	-0.33680604	-0.72002283	-0.20388012	-0.20937843	-0.80249922	-0.92710733	-3.35201874	0.66347031	-0.17498670	2.58387786	0.30547801	-0.21263314	0.75664414	0.03014978	-0.44215793	0.85679971	-0.34140509	-6.05452839	-0.22419100	-0.00850410	0.04322201	0.10681505
862	8.61000000	0.60496010	0.02815271	-0.33823833	-0.66164176	-0.13457039	-0.22092394	-0.60504183	-0.90936533	-3.15896637	0.72770870	-0.30720822	2.57380697	0.29163410	-0.03986240	0.72359180	-0.06205340	-0.58069759	0.87427096	-0.63925337	-6.56585561	-0.34260873	-0.15164346	0.04243137	0.09029711
863	8.62000000	0.58048158	0.03511746	-0.34819157	-0.60652618	-0.09041183	-0.20933532	-0.12186302	-0.87792272	-2.93017807	0.43219060	-0.43645149	2.52053225	0.39336676	0.01395722	0.58976780	-0.10915110	-0.65944810	0.87164522	0.00048353	-6.16252681	-0.90522533	-0.02095386	0.01342065	0.06000936
864	8.63000000	0.55258567	0.02958960	-0.35986674	-0.53679162	-0.04889272	-0.17711000	0.90338665	-0.81712705	-2.66796994	-0.00198599	-0.48594701	2.39452761	0.32477358	-0.03704742	0.46173922	0.00745138	-0.62401799	0.82543126	1.15073003	-5.48672368	-1.90236974	-0.02107452	-0.02202138	0.03695003
865	8.64000000	0.53910172	0.01825759	-0.36894409	-0.46199079	-0.01905236	-0.13139905	2.22230409	-0.82933039	-2.28951779	-0.43696846	-0.43811695	2.26994981	-0.08502681	-0.07612768	0.48273325	0.20558547	-0.56065728	0.80008939	2.04414845	-4.92905308	-2.63718035	0.02187187	-0.03188273	0.02154773
866	8.65000000	0.52979859	0.00632187	-0.37637094	-0.40337573	-0.00405225	-0.05120538	2.71599546	-0.92101351	-1.77478287	-0.77058647	-0.39084068	2.18758721	-0.35915741	-0.09445262	0.51465878	0.29842878	-0.52169150	0.84779506	3.23160142	-4.25266452	-2.67440263	-0.00321874	-0.02456156	0.01889630
867	8.66000000	0.50733143	-0.00494939	-0.36099879	-0.35084385	-0.01033735	0.04539906	2.40877844	-0.96242470	-1.39514525	-0.93612766	-0.49499939	2.09516481	-0.43561921	-0.14883276	0.47036233	0.26455588	-0.48779858	0.91743923	3.71683397	-3.36210343	-1.96562282	0.02862619	-0.06121525	0.00637992
868	8.67000000	0.47765601	-0.02976752	-0.34399377	-0.27860695	-0.00158021	0.14620352	1.91735544	-0.89969045	-1.12076915	-1.00817928	-0.72599028	1.96540125	-0.21985946	-0.15352417	0.40325522	0.19296948	-0.47003542	0.93373816	1.87122831	-1.21371594	-1.24645709	0.04045606	-0.08420884	-0.00624768
